/* XPM */
static char *ede0db18bc7a425082e3a0c0c30d7b49[] = {
/* columns rows colors chars-per-pixel */
"27 31 36 1 ",
"  c #585858",
". c DimGray",
"X c gray45",
"o c gray49",
"O c #838383",
"+ c gray52",
"@ c #8B8B8B",
"# c #8E8E8E",
"$ c #909090",
"% c gray59",
"& c #9A9A9A",
"* c #9D9D9D",
"= c gray64",
"- c gray65",
"; c gray66",
": c #AEAEAE",
"> c gray69",
", c #B6B6B6",
"< c #B9B9B9",
"1 c gray75",
"2 c #C1C1C1",
"3 c gray77",
"4 c gray79",
"5 c gray80",
"6 c #D0D0D0",
"7 c #D7D7D7",
"8 c #D8D8D8",
"9 c gray87",
"0 c gray88",
"q c #E6E6E6",
"w c #EAEAEA",
"e c #EEEEEE",
"r c #F3F3F3",
"t c gray97",
"y c gray98",
"u c white",
/* pixels */
"uuuuuuuuuuuuuuuuuuuuuuuuuuu",
"uuuuuuuuuuuuuuuuuuuuuuuuuuu",
"uuuuuuur6>#@$%*=1ruuuuuuuuu",
"uuuuy5@&4qyyytre6o<yuuuuuuu",
"uuu0+2tuuuuuuuuuuu3o9uuuuuu",
"uu9#tuuuuuuuuuuuuuur$7uuuuu",
"utotuuuuuuuuuuuuuuuuyOtuuuu",
"u,8uuuuuuuuuuuuuuuuuu42uuuu",
"t+uuuuuuuuuuuuuuuuuuuuOtuuu",
"54uuuuuuuuuuuuuuuuuuuu53uuu",
";quuuuuuuuuuuuuuuuu7tuy@uuu",
";wuuuuuuuuuuuuuuuuu*>yu%ruu",
"-euuy;1yuuuuuuuuuuuuyuu62uu",
"-euur.Xeuuuuuuuuuuuuuuut%uu",
"-euuuutuuuuuuuuuuuuuuuuu+uu",
"-euuuuuuuuuuuuuuuuw6,>,e-eu",
"=euuuuuuuuuur82>><6wyuuu48u",
"=euuuuyq5,:>39ruuuuuuuuu56u",
"=euu5:<6wuuuw333quuuuuuu64u",
":quuuuuuuuuuuuuuuuuuuuuu55u",
"9>uuuuuuuuuuuuuuuuuuuuuu37u",
"uOuuuuuuuuuuuuuuuuuuuuuu>qu",
"u,0uuuuuuuuuuuuuuuuuuuuu@yu",
"uw=uuuuuuuuuuuuuuuuuuuur%uu",
"uu$wuuuuuuuuuuuuuuuuuuu>7uu",
"uue+wuuuuuuuuuuuuuuuuu8=uuu",
"uuue@4uuuuuuuuuuuuuuu8@tuuu",
"uuuuu,%wuuuuuuuuuuuu2$tuuuu",
"uuuuuuw&%7yuuuuuuuw#2uuuuuu",
"uuuuuuuur2 =33333-#euuuuuuu",
"uuuuuuuuuu+w77888wuuuuuuuuu"
};
