/* XPM */
static char *_6a1e97b0751431e923e1b4b4b4b1c9fGVpKbd92ts3QL38x[] = {
/* columns rows colors chars-per-pixel */
"32 28 64 1 ",
"  c #111111",
". c #191919",
"X c gray17",
"o c gray23",
"O c gray24",
"+ c gray28",
"@ c gray29",
"# c gray33",
"$ c gray39",
"% c gray42",
"& c #6C6C6C",
"* c gray45",
"= c #767676",
"- c #7B7B7B",
"; c #7C7C7C",
": c #818181",
"> c #888888",
", c #8E8E8E",
"< c #9E8D8C",
"1 c gray57",
"2 c #979797",
"3 c gray60",
"4 c gray62",
"5 c #A2A2A2",
"6 c #A5A5A5",
"7 c gray66",
"8 c #AFAFAF",
"9 c gray70",
"0 c gray71",
"q c gray72",
"w c #BCBAB9",
"e c gray",
"r c #C29998",
"t c #C5A7A7",
"y c #C4ACAB",
"u c #CEB9BA",
"i c #C0C0C0",
"p c #C6C6C6",
"a c #CACACA",
"s c gray81",
"d c #D1C1C0",
"f c #D2CBCC",
"g c #D3D2D2",
"h c #D7D7D7",
"j c #DADADA",
"k c gray86",
"l c #DDDDDD",
"z c #E6CDCD",
"x c #F1DAD9",
"c c gray88",
"v c #E4E3E3",
"b c #E7E7E7",
"n c #EAEAEA",
"m c #ECEBEB",
"M c gray93",
"N c #F4E2E2",
"B c #F6E7E7",
"V c #F3F3F3",
"C c gray96",
"Z c #F9F1F1",
"A c #FBF3F4",
"S c #FBF5F5",
"D c #FBFBFB",
"F c white",
/* pixels */
"FFFFFhshMplsMFFFFFFFFFFFFFFFFFFF",
"FFFcgDFq670DgDFFFFFFFFFFFFFFFFFF",
"FFljMFFj+4#7gaFFFFFFFFFFFFFFFFFF",
"FDjFi,w1$*<NcibFFFFFFFFFFFFFFFFF",
"FlDmtzZDeldS8XsFFFFFFFFFFFFFFFFF",
"FjFfBFi,8VuAaa8DFFFFFFFFFFFFFFFF",
"FjFgSFl8qFpybacsFFFFFFFFFFFFFFFF",
"FlFjrxvpFFjnbbg:FFFFFFFFFFFFFFFF",
"FlFs%%cDjq72&,q6nFFFFFFFFFFFFFFF",
"FlFDDj8>40hing0jsFFFFFFFFFFFFFFF",
"FlCgp=7MjFFjFh7egFFFFFFFbja9bgsD",
"Fleb@gbslhaij5%5jFFFFFFViq7q6j9g",
"Fj3j O6894323889pDFFFFnij8llspig",
"Fjsp :jghsbhjVlshjajbgs9jgh46cpp",
"FDs0XsFjFsD7p9gjcnhCVls9Mspn8s66",
"FFlpcas9s4ghg6-hFaCDDDjFFjVh9hja",
"FFgFbglcje,:qeDFF#:ssssnFMbCb351",
"FlhFFFV0%qVFFjFFV sFFcsDFgDCqVaM",
"DjlFFFFFFjqgaabMlojggVFFDcsjnhhD",
"hFjFFFFFFcCFFDMbcbVFFDjggCFFFFFF",
"jFlDFFFFFiajsghlclggghDFFFFFFFFF",
"hFFpFFFFF=3gMhFDCDFFFFFFFFFFFFFF",
"lFFiqDFFF.pDFlFFFFFFFFFFFFFFFFFF",
"bFFF6%0nDXCFnVFFFFFFFFFFFFFFFFFF",
"lFFFFj7;-6FFbFFFFFFFFFFFFFFFFFFF",
"hFFFFFFFFFFFbDFFFFFFFFFFFFFFFFFF",
"lFFFFFFFFFFFCbFFFFFFFFFFFFFFFFFF",
"hggggggggggggbFFFFFFFFFFFFFFFFFF"
};
