/* XPM */
static char *_6364813840a43199346ce1ab616f7a9[] = {
/* columns rows colors chars-per-pixel */
"32 32 58 1 ",
"  c #010101",
". c gray6",
"X c #111111",
"o c #1D1D1D",
"O c gray13",
"+ c #272727",
"@ c gray17",
"# c #2D2D2D",
"$ c gray20",
"% c #343434",
"& c gray26",
"* c #444444",
"= c #494949",
"- c #4C4C4C",
"; c #535353",
": c #565656",
"> c #5A5A5A",
", c gray37",
"< c #606060",
"1 c #646464",
"2 c DimGray",
"3 c #6C6C6C",
"4 c gray45",
"5 c gray46",
"6 c gray47",
"7 c #7E7E7E",
"8 c #808080",
"9 c #848484",
"0 c #888888",
"q c gray56",
"w c #909090",
"e c gray58",
"r c #9B9B9B",
"t c gray62",
"y c gray64",
"u c #A5A5A5",
"i c #A9A9A9",
"p c #AEAEAE",
"a c #B1B1B1",
"s c gray71",
"d c #BBBBBB",
"f c gray75",
"g c #C3C3C3",
"h c gray77",
"j c #CACACA",
"k c #CDCDCD",
"l c #D2D2D2",
"z c gray83",
"x c #D8D8D8",
"c c #DDDDDD",
"v c gray89",
"b c #E4E4E4",
"n c #E9E9E9",
"m c #EEEEEE",
"M c gray94",
"N c #F4F4F4",
"B c #F8F8F8",
"V c white",
/* pixels */
"VVVVVVVVVVVVVVVVVVVVVVVVVVVVVVVV",
"VVVVVVVVVVVVVVVVVVVVVVVVVVVVVVVV",
"VVVVVVVVVVVVVVVVVVVVVVVVVVVVVVVV",
"VVVVVVVbjar86777779999966zVVVVVV",
"VVVVmi4rudkzzzxzcvxzlmVVMwfVVVVV",
"VVVj6lxzxzxccxxczllllklNVBwxVVVV",
"VVkrBVMzzxznVVVvlbbxlgkxvVM5BVVV",
"VVwMVBkVVVnNVVVxVVVVVmjkmBVshVVV",
"VN5BVBBNNBBnVVVBxw219fmMBVVN2MVV",
"M0jMMmr#+-pNVVVurcr  >6mvVBvt3mV",
"rdjvbMzsy8$-hVB,y5pyhspvczgfcp6M",
"4kfdakVVVVveVVVmlBVz7jzs2pjpqMpw",
"2xkhve66BVfaVVVVVVVVmgfzNdiVplxq",
"2lxVeMmBNeyNVVVj7fcvNVBk6y&alsxu",
"0axbXxVxp&jVVxrphgBMxp;ymv6valz5",
"cebh%>kMVN0alBNbdgu3rk5Ng-fVzhdu",
"V7Nf@w84slluhgi75<hBBgO109VVba7N",
"VrMf<8n6jf3tg6jNVgpu=&=n6mVVb5MV",
"Vymf  8*sg6sh5sft;.6hN70zVVV9vVV",
"VymjX          @9h2VVM7jVVVztVVV",
"Vtmb,;:4o;&2us2NVVwvl4cVVVm4MVVV",
"VrMVe4fdrcciVV8VVNp*yMbNvb5bVVVV",
"VwMVNs4>75d1hg*t90dncllkd5bVVVVV",
"VqNBBbVNbckjkxvmBmllklk7pNVVVVVV",
"V0BzBvlvMmcxzcxzhfxzj7tnVVVVVVVV",
"V8VBkxMnczllkzzxbNh4amVVVVVVVVVV",
"VijVVNnnmMNBVVVMd5dNVVVVVVVVVVVV",
"VN8gBVVVVVVmht37hBVVVVVVVVVVVVVV",
"VVBd7ruyr06rhbVVVVVVVVVVVVVVVVVV",
"VVVVVVVVVVVVVVVVVVVVVVVVVVVVVVVV",
"VVVVVVVVVVVVVVVVVVVVVVVVVVVVVVVV",
"VVVVVVVVVVVVVVVVVVVVVVVVVVVVVVVV"
};
