/* XPM */
static char *_4e6fbc1b0214386822c7d026a91971c[] = {
/* columns rows colors chars-per-pixel */
"32 32 40 1 ",
"  c #1D6E12",
". c #1D7113",
"X c #217F16",
"o c #1F8313",
"O c #218315",
"+ c #238D16",
"@ c #258718",
"# c #248E18",
"$ c #229315",
"% c #259C16",
"& c #259418",
"* c #259918",
"= c #259A18",
"- c #259E18",
"; c #279E19",
": c #289E1A",
"> c #23A115",
", c #24A115",
"< c #26A517",
"1 c #26A916",
"2 c #26AF16",
"3 c #28AF17",
"4 c #27A019",
"5 c #27A418",
"6 c #28A11A",
"7 c #29A519",
"8 c #2BA01C",
"9 c #29A41C",
"0 c #27A818",
"q c #27AD18",
"w c #29AB1A",
"e c #2BAD1B",
"r c #27B016",
"t c #27B516",
"y c #28B517",
"u c #29BD17",
"i c #28B018",
"p c #2AB219",
"a c #29B418",
"s c #29BC18",
/* pixels */
"222,$2,-,22222$3,$$$-,,1=2222222",
"2=-O-2$1-$-22,-,-,$-=,,$222O2222",
">eo-e-$$$=Or-,6$72=2rOp$222&-2$,",
"$$--,12-o22,--o2,,yO$,,22@2-1&o,",
"12,22221==$2,o221$$-222,2@$$rO&=",
"22q2o22==$=,,=-$rX$+12$1-,a,,$22",
"2$$$=--e$2=-2$a,,$q,5=,@--22,2,2",
"2,$$=7O$6o$<#1-$22222,2,$12$7>:2",
"2,212+-$=$w$$$$=$2,-2o22$5=,@-=2",
"2#$eo$e,$-,12$,27,,4$7=$<e$2,222",
"2$=$92222222,$2$2=,@2,1=,$22,222",
"2,s-$202,2,-$,,$&2q2222w$,2$6,$2",
"2,2$0=o#+-$<w=$w,,$$$-$%+e,$$$=,",
"2@,$=5$$O%,o22=<-# $=,wO,,12$,22",
"2$e-o,28$$,1-2rXa#==>$$2222,22,2",
"2,=0%-#eO$=,tO$,-2,y,,22222#-w1$",
"2$6$-7>$o22$+2$1=$22,-222$$$po+$",
"=,o=o22$=22#+-$=,o=2O,q,=-$$>$$u",
"2222,22,e,,2$e-&,,=X =2$4$--2222",
"22$,+-2$722,=22$,,eo-<--@+.1,222",
"2,#$%7=$=O2$&22$p$$>,2$,#+6$0222",
"2,2-+,,,-==+$#@O-01#$$$$&<=$$222",
"2+,,-O,$=,$1$$,&12rO$1q,o<=-,222",
"2$e#1O+&1=O$2,=,w2-,210-$%,+,e$2",
"2$=$<+=$=$#=2$6$%-$227,e%=,wop$2",
"2,1=-+,,2O&5=,o+O#o-=-e$,p@$-,22",
",22-=$e$-X$,,222,$&=po$,22,22,22",
"$-2$5$->2,,1+-$+=@22-$1#-w1&4$22",
",7--O$o2,$$=$3#$.&-,pX$=po4O1,,$",
"-222,$p#-,,%=q+O%$yO$2$,$%4$7,-1",
"y,$,$=2$8-2$4-%<q2,222,2,5=,@,=,",
"2,$$=1=$=<=-O$$22$6=,2$=22,2,222"
};
