/* XPM */
static char *bcbdaeb202bf4ab3c576ec4715c37f8dQy1y4NjgMOBcqoXH[] = {
/* columns rows colors chars-per-pixel */
"24 32 158 2 ",
"   c #000000",
".  c #1C1C1B",
"X  c #282828",
"o  c #323434",
"O  c gray22",
"+  c #4E1D07",
"@  c #451A09",
"#  c #4E1F0C",
"$  c #521E07",
"%  c #5A1F00",
"&  c #5C2000",
"*  c #52210F",
"=  c #582109",
"-  c #4D2214",
";  c #572412",
":  c #672809",
">  c #772D04",
",  c #672A10",
"<  c #7D3512",
"1  c #5A2D21",
"2  c #593025",
"3  c #59352D",
"4  c #4D3B39",
"5  c #523F3C",
"6  c #255858",
"7  c #454545",
"8  c #494E4E",
"9  c #524140",
"0  c #4A5558",
"q  c #4D5A5D",
"w  c #545454",
"e  c #555959",
"r  c #485F63",
"t  c #446767",
"y  c #4D6B71",
"u  c #527177",
"i  c #5A7E7E",
"p  c #636363",
"a  c #7F736E",
"s  c #627979",
"d  c #697A7A",
"f  c #727372",
"g  c #717979",
"h  c #7D7A78",
"j  c #883D17",
"k  c #873D1B",
"l  c #8D3F18",
"z  c #99461E",
"x  c #99471E",
"c  c #8E4525",
"v  c #944623",
"b  c #9B4A27",
"n  c #954B2B",
"m  c #994C2C",
"M  c #9F502F",
"N  c #9C4F30",
"B  c #9E5131",
"V  c #A44E23",
"C  c #A65027",
"Z  c #AB5125",
"A  c #A4512D",
"S  c #AC562E",
"D  c #B15425",
"F  c #B0572E",
"G  c #B4592D",
"H  c #A15434",
"J  c #AB5732",
"K  c #A05638",
"L  c #A65939",
"P  c #AD5E3D",
"I  c #B05831",
"U  c #BA5F34",
"Y  c #B25F3E",
"T  c #B2603E",
"R  c #BD643F",
"E  c #C05F2E",
"W  c #C4673E",
"Q  c #CB693B",
"!  c #D06835",
"~  c #875845",
"^  c #846154",
"/  c #AA6346",
"(  c #B46241",
")  c #BA6643",
"_  c #BB6846",
"`  c #866C63",
"'  c #C16741",
"]  c #C46A45",
"[  c #CB6D45",
"{  c #D26F44",
"}  c #D47245",
"|  c #DC7443",
" . c #D87448",
".. c #DE7A4E",
"X. c #D77A53",
"o. c #D97D58",
"O. c #DD7F58",
"+. c #E17542",
"@. c #EC7B45",
"#. c #77807F",
"$. c #DC825F",
"%. c #D48365",
"&. c #DB8564",
"*. c #D38669",
"=. c #717F80",
"-. c #3E8D8D",
";. c #37B7B6",
":. c #3ABCBC",
">. c #448E8E",
",. c #4E8F8F",
"<. c #5F8289",
"1. c #599A9A",
"2. c #6F8285",
"3. c #61858C",
"4. c #6C8C8B",
"5. c #708285",
"6. c #7D8382",
"7. c #708E8B",
"8. c #6C918F",
"9. c #70918D",
"0. c #658B92",
"q. c #6D8E93",
"w. c #6B9391",
"e. c #6C939B",
"r. c #6B9CA3",
"t. c #57ADB0",
"y. c #4CB5B4",
"u. c #4CBABA",
"i. c #56B4B7",
"p. c #5AB2B5",
"a. c #56B6B8",
"s. c #53BABB",
"d. c #6BA3A6",
"f. c #69A5AB",
"g. c #66A9AF",
"h. c #69A9AE",
"j. c #68ABB1",
"k. c #64B2B7",
"l. c #64B6BA",
"z. c #64BBBF",
"x. c #47C6C6",
"c. c #48C9CA",
"v. c #5FC6C9",
"b. c #5CC9CC",
"n. c #5DCED1",
"m. c #54D3D4",
"M. c #5BD2D4",
"N. c #50DFDF",
"B. c #5ADBDC",
"V. c #61C1C4",
"C. c #61C7CA",
"Z. c #60C9CC",
"A. c #58DFE0",
"S. c #54E3E4",
"D. c #56E6E7",
"F. c #58E2E3",
"G. c #55E7E8",
"H. c #55E8E9",
/* pixels */
"                p g ,.,.,.,.8 X                 ",
"            p 4.y.c.B.z.z.B.x.y.4.p             ",
"        7 t s.S.f.e.b.0.0.b.e.f.N.u.6 O         ",
"      f 1.S.r.d.s.r 5 % % 9 r s.r.d.S.>..       ",
"    f d.k.j.i.0 & > Z H H c > % q a.h.k.-.X     ",
"  . e D.r.3.2 < H R ! _ _ H +.J < 3 3.r.D.o .   ",
"  8 ;.r.t.1 Z } _ W ! _ _ H | [ { v 3 t.r.;.p   ",
"  #.b.e.q c G  .] R ! ] ] H | ] { S V q e.b.6.  ",
"w u.V.p.= T G } [ R ! [ [ H | ] [ S Q ; p.V.y.e ",
"7 :.e.y c _ G [ [ ( ! [ [ H | _ [ F } c u e.:.e ",
"i m.k.4 J _ G [ ] ( ! [ ] H | _ [ G } B 4 k.m.d ",
"i B.l.# | _ G [ _ ( ! [ ] H | _ [ G } ( - l.B.s ",
"i C.q.j G A V S A A D S S b G A A V G A k q.Z.s ",
"i D.9.@. .%. . .*. . . .%. . .o.X. .X.%.} w.D.s ",
"i C.5.S m m m m m m m m m m m m m m m m m 2.Z.s ",
"i C.e.+ G B z I B m Z H B v G B B z I A # e.Z.s ",
"i D.n.# | _ G  .] ( ! [ _ I | _ _ S | ' - M.D.s ",
"i C.e.+ } ` S } [ ( ! [ ] J | _ _ S | ' # e.Z.s ",
"i B.V.# [ a S [ [ ( ! ] { H | ] ] S | ' - V.A.s ",
"i M.g.# | ~ G [ ] R ! _ { H | ] ] S +.] - g.M.s ",
"i C.e.+ | ~ G [ ] R ! _ { H | ] ] S  .' # e.Z.s ",
"i G.M.# } ^ G [ _ W ! _ { H | [ [ S } ] - M.H.s ",
"i C.e.+ ] h A [ _ R ! _ [ H | [ [ S } ' # e.Z.s ",
"i n.r.# | / G [ _ R ! _ _ H | [ ] S } ) - r.n.s ",
"i F.v.# | _ G [ _ R ! _ _ H +._ [ G } ( - v.F.s ",
"i C.e.: G N z J M m Z N N c G A H z A m , e.Z.s ",
"i F.7.@.| &.| | &.| | | &.| | O.O.| ..$.| 8.F.s ",
"i Z.=.U H K H H H H H H H H H H H H H H B 2.n.s ",
"i C.e.$ Z b l b b c z n b k V b b l m v * e.Z.s ",
"i G.M.# | [ G [ [ ( ! ] [ H | ] [ S } ( - M.H.s ",
"i C.e.+ | [ G } ] ( ! [ ] J | ] ] S } ( # e.Z.s ",
"s i.<.@ Q Y C W Y L E R T A Q P P m W L @ 3.a.d "
};
