/* XPM */
static char *_73ef98086c64202bc205814864b107d[] = {
/* columns rows colors chars-per-pixel */
"20 32 160 2 ",
"   c black",
".  c #0F100F",
"X  c #161616",
"o  c gray10",
"O  c #372319",
"+  c #252C2D",
"@  c #2C2E2D",
"#  c #272F30",
"$  c #2B3C3E",
"%  c #3B3C3C",
"&  c #7B330C",
"*  c #4F352B",
"=  c #513126",
"-  c #613220",
";  c #6D402E",
":  c #7F4128",
">  c #2D3F41",
",  c #2E4245",
"<  c #294546",
"1  c #384748",
"2  c #2C4F51",
"3  c #2B5456",
"4  c #3A5150",
"5  c #316F6E",
"6  c #267473",
"7  c #4B5859",
"8  c #575756",
"9  c #6D4C41",
"0  c #7B5A4F",
"q  c #466264",
"w  c #4E666A",
"e  c #496968",
"r  c #53666A",
"t  c #4D6C70",
"y  c #487B7A",
"u  c #517075",
"i  c #5A7476",
"p  c #57777B",
"a  c #6F6B6B",
"s  c #687675",
"d  c #803716",
"f  c #813817",
"g  c #8C3D15",
"h  c #883F1F",
"j  c #98451C",
"k  c #8B4425",
"l  c #88492F",
"z  c #904423",
"x  c #92523A",
"c  c #A24E25",
"v  c #AB5225",
"b  c #A3522D",
"n  c #AE552C",
"m  c #B25627",
"M  c #B1572A",
"N  c #B3592C",
"B  c #BC5C2C",
"V  c #A65632",
"C  c #AC5933",
"Z  c #A75D3F",
"A  c #B55B32",
"S  c #BA5D32",
"D  c #BE6135",
"F  c #B9623B",
"G  c #C3612E",
"H  c #C46232",
"J  c #CB6634",
"K  c #C76739",
"L  c #CA6738",
"P  c #C46B3A",
"I  c #CC6B3C",
"U  c #D36A34",
"Y  c #D46E3D",
"T  c #DE723E",
"R  c #EE7A3E",
"E  c #845544",
"W  c #985A44",
"Q  c #9C6350",
"!  c #A4634B",
"~  c #AF664A",
"^  c #B16241",
"/  c #B0694D",
"(  c #B27342",
")  c #AE6B51",
"_  c #AE715C",
"`  c #B7765E",
"'  c #9A6F64",
"]  c #877063",
"[  c #AF7560",
"{  c #BE7B63",
"}  c #CE6D41",
"|  c #CE7D43",
" . c #D77140",
".. c #DB7443",
"X. c #D87940",
"o. c #D0754F",
"O. c #D7784F",
"+. c #C37455",
"@. c #CB7959",
"#. c #D17751",
"$. c #E47743",
"%. c #E67942",
"&. c #C47B60",
"*. c #AE936F",
"=. c #B89168",
"-. c #AB9472",
";. c #D48146",
":. c #C58D5A",
">. c #CF8F59",
",. c #D3915B",
"<. c #DA935A",
"1. c #FE8345",
"2. c #FD8B4C",
"3. c #FF904F",
"4. c #E0945A",
"5. c #FF9753",
"6. c #FE9956",
"7. c #FEA75F",
"8. c #F1A360",
"9. c #378D8D",
"0. c #2B9D9C",
"q. c #498787",
"w. c #478788",
"e. c #468A8C",
"r. c #4D8888",
"t. c #548085",
"y. c #538D91",
"u. c #409797",
"i. c #469E9E",
"p. c #589497",
"a. c #7A8486",
"s. c #75918D",
"d. c #6D959D",
"f. c #739F9D",
"g. c #68A19C",
"h. c #6B9FA6",
"j. c #58ADAC",
"k. c #44B9BA",
"l. c #4DB8B9",
"z. c #6AA1A7",
"x. c #69A3A9",
"c. c #68A8AE",
"v. c #68AEB3",
"b. c #64B1B5",
"n. c #64B9BD",
"m. c #42BFC0",
"M. c #62BEC2",
"N. c #41C2C2",
"B. c #47C8C9",
"V. c #54C2C4",
"C. c #58C0C2",
"Z. c #50CDCE",
"A. c #5FCCCE",
"S. c #5ECFD2",
"D. c #53D5D5",
"F. c #5DD1D3",
"G. c #61C2C5",
"H. c #62C6C9",
"J. c #66C7C8",
"K. c #87948F",
/* pixels */
"          % q 9.B.l.g.X.( K 9           ",
"        7 J.V.b.A.a.$.7.C $.F 0         ",
"    % f.D.x.G.t.< : 5.;.C %.J ] i o     ",
"  % r.b.n.y.$ + @ U 6.| S %.J k j.s @   ",
"  1 Z.x.u + # # = R 8.H S ..J n K.k.8   ",
"o i.c.p.+ # # # - 1.8.H S ..J S ' M.e   ",
"4 V.v.> # # # # N 2.4.H A $.J S ^ b.l.X ",
"6 n.y.+ # # # # H 3.<.H C %.J S H p.C.. ",
"u.c.q + # # # # H %.( B C ..J S D w b.5 ",
"N.A.3 # # # # # B J ..L v N H A S e.S.0.",
"k.d., # # # # # G J W / &.O.J m c r z.0.",
"N.A.3 # # # # # H 2.( g z Q ~ @.o.s.F.0.",
"k.d., # # # # # H 3.<.H b B g h ! a z.0.",
"N.H.3 # # # # # H 3.<.H C ..H n c w.A.0.",
"k.z., # # # # # H 3.=./ C %.J A S t c.0.",
"k.h., # # # # # H 3.-.[ C %.J A H t c.0.",
"N.H.3 # # # # # H 3.:.C S %.J S H w.A.0.",
"k.d., # # # # # H 3.>.C S ..J S D w z.0.",
"N.A.3 # # # # # H 3.:.C S %.J A H e.F.0.",
"k.d., # # # # # H 3.*._ A %.J S H w z.0.",
"N.H.3 # # # # # H 3.=.) C $.J S D e.S.0.",
"k.d., # # # # # H 3.<.H A ..J A A r x.0.",
"k.c.< # # # # # H 3.4.H A  .B v J E b.0.",
"m.M.2 # # # # # H 3.<.M M J } #.` W G.0.",
"k.d., # # # # # G U P Y @.{ Z x d r z.0.",
"N.A.3 # # # # # B J +.! x f j c A e.F.0.",
"k.d., # # # # # G U & j z T J S D w z.0.",
"q.i 1 % % % % % H 3.<.H S $.J S F 7 p y ",
"                I 3.<.H S ..H ! ;       ",
"                I 3.<.H C  .k O         ",
"                I 3.,.D V E             ",
"                I 3.>.l *               "
};
